<?xml version="1.0" standalone="no"?>
<!DOCTYPE svg PUBLIC "-//W3C//DTD SVG 20010904//EN"
 "http://www.w3.org/TR/2001/REC-SVG-20010904/DTD/svg10.dtd">
<svg version="1.0" xmlns="http://www.w3.org/2000/svg"
 width="1024.000000pt" height="1024.000000pt" viewBox="0 0 1024.000000 1024.000000"
 preserveAspectRatio="xMidYMid meet">
<metadata>
Created by potrace 1.14, written by Peter Selinger 2001-2017
</metadata>
<g transform="translate(0.000000,1024.000000) scale(0.100000,-0.100000)"
fill="#000000" stroke="none">
<path d="M4685 10015 c-286 -25 -544 -69 -803 -137 -64 -16 -124 -31 -132 -32
-8 0 -17 -4 -20 -7 -7 -7 -120 -41 -142 -42 -10 -1 -18 -5 -18 -10 0 -5 -7 -7
-15 -3 -8 3 -15 2 -15 -2 0 -4 -26 -17 -57 -27 -32 -11 -128 -48 -213 -83 -85
-35 -159 -64 -165 -65 -5 -1 -12 -4 -15 -7 -9 -10 -145 -73 -157 -73 -7 0 -13
-4 -13 -9 0 -5 -4 -7 -9 -4 -5 4 -11 2 -13 -3 -3 -10 -198 -114 -198 -106 0 3
-9 -4 -20 -15 -12 -12 -25 -18 -30 -15 -6 4 -10 2 -10 -3 0 -9 -36 -29 -54
-30 -5 0 -12 -4 -15 -9 -9 -13 -89 -63 -101 -63 -5 0 -10 -4 -10 -10 0 -5 -4
-10 -10 -10 -5 0 -32 -16 -58 -35 -27 -19 -52 -32 -55 -28 -4 3 -7 2 -7 -4 0
-5 -26 -27 -57 -49 -32 -21 -65 -44 -73 -51 -8 -6 -55 -42 -105 -79 -49 -37
-99 -76 -110 -86 -11 -10 -31 -27 -45 -38 -57 -47 -136 -119 -193 -175 -34
-33 -65 -59 -69 -57 -5 1 -8 -2 -8 -7 0 -4 -48 -58 -107 -119 -60 -60 -121
-127 -138 -148 -16 -20 -39 -47 -50 -58 -11 -12 -34 -39 -50 -61 -16 -22 -37
-47 -47 -56 -10 -9 -18 -20 -18 -25 0 -5 -14 -25 -31 -43 -27 -30 -125 -163
-154 -209 -66 -104 -127 -199 -135 -209 -5 -7 -10 -17 -10 -22 0 -5 -6 -16
-13 -23 -6 -7 -21 -31 -32 -53 -11 -22 -22 -42 -25 -45 -3 -3 -17 -30 -32 -60
-15 -30 -45 -86 -65 -125 -85 -157 -231 -507 -296 -710 -206 -641 -275 -1427
-191 -2178 28 -255 109 -654 179 -877 35 -113 113 -328 141 -388 13 -29 24
-59 24 -67 0 -7 4 -16 8 -19 5 -3 21 -38 37 -78 15 -40 31 -75 34 -78 3 -3 30
-54 60 -115 30 -60 57 -112 60 -115 3 -3 17 -27 31 -55 13 -27 27 -52 31 -55
3 -3 19 -30 35 -60 16 -30 32 -57 35 -60 3 -3 14 -21 25 -40 10 -19 22 -37 25
-40 11 -10 89 -132 89 -140 0 -5 3 -10 8 -12 11 -5 72 -86 72 -96 0 -6 7 -12
15 -16 8 -3 15 -10 15 -16 0 -6 6 -17 12 -25 7 -7 22 -25 33 -41 11 -15 26
-33 32 -40 7 -7 13 -15 13 -19 0 -3 10 -16 23 -29 12 -13 38 -43 57 -66 19
-23 41 -48 48 -55 6 -8 12 -16 12 -18 0 -2 26 -32 57 -66 100 -108 393 -394
393 -384 0 3 12 -7 27 -22 16 -15 44 -39 63 -54 39 -29 85 -67 112 -93 10 -10
18 -15 18 -12 0 3 6 -1 14 -8 7 -7 24 -20 36 -28 12 -8 34 -25 48 -37 15 -13
30 -23 34 -23 4 0 13 -6 20 -13 7 -7 30 -23 51 -36 20 -12 37 -27 37 -32 0 -6
4 -8 8 -5 5 3 18 -4 30 -14 12 -11 24 -20 27 -20 3 0 32 -17 63 -38 31 -20 69
-43 84 -51 15 -8 38 -24 50 -35 12 -12 23 -19 23 -16 2 10 125 -61 125 -72 0
-6 3 -9 6 -6 5 6 244 -108 254 -121 3 -3 10 -7 17 -8 6 -2 49 -20 95 -41 145
-68 200 -92 213 -92 8 0 20 -6 27 -12 7 -7 20 -14 28 -15 8 -1 65 -20 125 -43
213 -81 488 -155 742 -199 156 -27 209 -35 448 -62 266 -30 758 -20 1066 21
433 57 925 195 1280 359 37 17 70 31 74 31 12 0 343 168 355 180 3 3 23 14 45
25 22 11 42 23 45 26 3 3 21 14 40 25 19 10 37 22 40 25 3 4 21 16 41 27 88
49 89 50 135 87 18 14 37 25 43 25 6 0 11 5 11 10 0 6 7 10 15 10 8 0 15 5 15
10 0 6 6 10 14 10 8 0 16 4 18 8 2 5 26 23 53 42 28 18 52 36 55 39 15 17 90
71 99 71 6 0 15 9 21 20 6 11 15 20 21 20 6 0 16 6 24 12 7 7 32 29 55 48 23
19 57 50 76 68 20 17 37 32 40 32 8 0 344 327 344 336 0 5 34 42 118 129 23
25 40 45 37 45 -3 0 4 11 17 24 13 13 32 36 43 51 11 16 25 33 30 39 6 6 37
47 70 91 32 44 64 83 69 87 6 4 11 11 11 16 0 5 8 16 18 26 9 10 17 21 17 25
0 4 8 17 18 29 46 54 52 63 52 71 0 5 8 17 18 27 9 10 17 20 18 23 2 16 28 61
36 61 4 0 8 6 8 14 0 8 6 21 13 28 6 8 18 24 25 36 23 41 75 136 91 167 8 17
20 36 27 42 7 7 15 26 19 43 4 16 11 30 16 30 5 0 9 5 9 11 0 19 73 169 82
169 5 0 7 4 4 9 -7 10 33 104 45 109 5 2 7 8 3 13 -5 9 25 71 39 77 4 2 5 7 2
12 -6 10 45 154 57 158 4 2 6 7 3 12 -3 4 7 43 21 86 31 96 109 401 119 467 4
26 12 47 17 47 5 0 6 4 3 10 -3 5 5 80 19 167 66 419 81 645 72 1039 -4 143
-8 271 -11 285 -2 13 -5 58 -7 99 -2 41 -6 77 -9 80 -4 3 -9 34 -13 70 -23
227 -102 577 -187 833 -27 84 -51 160 -52 170 -1 9 -4 17 -7 17 -3 0 -12 17
-19 38 -15 40 -83 208 -105 257 -8 17 -28 60 -45 97 -17 37 -31 72 -31 77 0 6
-5 11 -11 11 -6 0 -9 7 -5 15 3 8 2 15 -3 15 -5 0 -12 11 -15 25 -4 14 -11 25
-16 25 -6 0 -10 8 -10 18 0 9 -9 28 -20 42 -11 14 -20 29 -20 33 0 5 -9 22
-21 39 -12 16 -19 32 -16 35 3 3 -3 14 -14 26 -10 11 -19 27 -19 34 0 7 -4 13
-9 13 -10 0 -35 56 -30 65 2 4 -4 11 -13 16 -10 6 -18 14 -18 20 0 5 -9 19
-20 31 -11 12 -20 28 -20 35 0 7 -4 13 -9 13 -5 0 -14 14 -21 30 -7 17 -16 30
-20 30 -4 0 -13 14 -20 30 -7 17 -16 30 -21 30 -5 0 -9 6 -9 13 -1 6 -14 28
-30 47 -17 19 -30 40 -30 48 0 7 -4 10 -10 7 -5 -3 -10 1 -10 9 0 9 -4 16 -8
16 -4 0 -15 12 -24 28 -9 15 -25 37 -35 49 -10 11 -25 31 -33 43 -8 12 -24 32
-35 45 -11 13 -29 35 -40 50 -11 15 -35 41 -52 58 -18 18 -33 35 -33 39 0 3
-33 40 -72 81 -40 41 -117 121 -170 176 -54 56 -100 101 -103 101 -2 0 -22 17
-44 38 -22 20 -61 55 -87 77 -26 22 -60 52 -76 68 -16 15 -33 27 -38 27 -6 0
-15 9 -22 20 -7 11 -17 20 -23 20 -6 0 -17 9 -25 20 -8 11 -19 20 -25 20 -5 0
-25 14 -44 30 -18 17 -37 30 -40 30 -4 0 -17 9 -28 20 -12 10 -47 36 -80 56
-32 21 -60 40 -63 44 -3 3 -35 24 -72 45 -38 22 -68 43 -68 47 0 4 -4 8 -9 8
-6 0 -38 17 -73 37 -101 60 -114 67 -293 157 -203 101 -238 117 -420 188 -621
244 -1132 339 -1805 337 -151 -1 -342 -7 -425 -14z"/>
</g>
</svg>
